# xmcd
#
# Track frame offsets: 
#        150
#        21087
#        38481
#        50688
#        66807
#        80829
#        97668
#        111900
#        131841
#        143259
#
# Disc length: 2136 seconds
#
# Revision: 2
# Processed by: cddbd v1.5.2PL0 Copyright (c) Steve Scherf et al.
# Submitted via: ExactAudioCopy v1.0b6
#
DISCID=7d08560a
DTITLE=Blues Party - Texas Blues Party 
DYEAR=1997
DGENRE=Blues
TTITLE0=Clarence "Gatemouth" Brown - Dollar Got The Blues (1981)
TTITLE1=Phillip Walker and Otis Grand - Young Devil (1992)
TTITLE2=Johnny Copeland - Texas Party (1989)
TTITLE3=U.P. Wilson - Soul King Shuffle (1994)
TTITLE4=The Smokin' Joe Kubek Band Ft Bnois King - You're My Brand (19
TTITLE4=95)
TTITLE5=W.C. Clark - I Want To Shout About It (1994)
TTITLE6=Anson Funderburgh and The Rockets Ft Sam Myers - 20 Miles (1989)
TTITLE7=Joe Houston and Otis Grand - Why Oh Why (1994)
TTITLE8=Mike Morgan and The Crawl - Big D Shuffle (1991)
TTITLE9=Tutu Jones - It's Been A Mistake (1996)
EXTD=
EXTT0=
EXTT1=
EXTT2=
EXTT3=
EXTT4=
EXTT5=
EXTT6=
EXTT7=
EXTT8=
EXTT9=
PLAYORDER=
